<svg xmlns="http://www.w3.org/2000/svg" width="108.659" height="75.5" viewBox="0 0 108.659 75.5"><defs><style>.a{fill:#fff;}</style></defs><g transform="translate(0 0.005)"><g transform="translate(0 -0.005)"><path class="a" d="M38.656,56.031V49.085c0-1.2,0-3.325-4.072-3.325a10.3,10.3,0,0,0-3.142.479c-.676.225-.9.479-.9.831v8.975c0,.338.113.38.395.38h.986c.268,0,.423,0,.423-.395V47.775c0-.465.761-.93,2.17-.93,2.311,0,2.311,1.522,2.311,2.452v6.735c0,.352.113.395.437.395h1.113C38.642,56.384,38.656,56.215,38.656,56.031Z" transform="translate(12.49 18.721)"/><path class="a" d="M46.511,51.256a5.382,5.382,0,0,0-1.93-4.748,4.945,4.945,0,0,0-5.241,0,5.41,5.41,0,0,0-1.93,4.748,5.368,5.368,0,0,0,1.93,4.706,4.945,4.945,0,0,0,5.241,0,5.368,5.368,0,0,0,1.93-4.706Zm-1.86,0a5.34,5.34,0,0,1-.93,3.649,2.3,2.3,0,0,1-1.761.662,2.24,2.24,0,0,1-1.747-.662,5.115,5.115,0,0,1-.958-3.649,5.157,5.157,0,0,1,.958-3.663,2.24,2.24,0,0,1,1.747-.662,2.3,2.3,0,0,1,1.761.662A5.3,5.3,0,0,1,44.651,51.256Z" transform="translate(15.286 18.72)"/><path class="a" d="M50.693,46.8c0-.719-1.226-1.043-2.607-1.043a7.932,7.932,0,0,0-2.3.324c-.69.183-.93.479-.93.831v9.172c0,.324.127.338.395.338h1.029c.254,0,.366,0,.366-.338V47.634a.916.916,0,0,1,.944-.916h.085c1.3,0,1.494.958,2.17.958a.817.817,0,0,0,.845-.817Z" transform="translate(18.346 18.721)"/><path class="a" d="M57.763,56.349V43.669c0-.366-.1-.409-.409-.409h-.986c-.338,0-.38.113-.38.437v3.649a4.424,4.424,0,0,0-2.2-.549c-3.114,0-4.72,2.959-4.72,5.439,0,3.677,2.029,5.481,5.086,5.481C55.664,57.758,57.763,56.983,57.763,56.349Zm-1.747-.592c0,.535-.845.817-1.775.817-1.944,0-3.339-1.634-3.339-4.438,0-2.438,1.409-4.058,3.184-4.058a2.677,2.677,0,0,1,1.93.634Z" transform="translate(20.068 17.699)"/><path class="a" d="M58.974,44.163a1.1,1.1,0,0,0-2.184,0A1.029,1.029,0,0,0,57.8,45.206h.07A1.071,1.071,0,0,0,58.974,44.163Zm-.2,12.962V47.432c0-.31-.085-.38-.409-.38H57.325c-.352,0-.352.127-.352.38v9.694c0,.268,0,.352.31.352h1.085C58.678,57.478,58.777,57.464,58.777,57.125Z" transform="translate(23.225 17.669)"/><path class="a" d="M73.172,57.241a.423.423,0,0,0-.141-.268l-3.818-5.044h0A12.681,12.681,0,0,0,72.806,47.7a.845.845,0,0,0,.113-.409c0-.183-.1-.225-.366-.225h-.944c-.352,0-.521,0-.62.31a8.848,8.848,0,0,1-3.565,4.466.211.211,0,0,0-.085.127.127.127,0,0,0,0,.1L70.932,57.2c.2.3.282.3.592.3h1.409S73.172,57.438,73.172,57.241Zm-6.143-.085V43.532c0-.282-.127-.282-.38-.282H65.592c-.225,0-.352,0-.352.324V57.142c0,.268.07.31.352.31h1.057C66.931,57.452,67.029,57.452,67.029,57.156Z" transform="translate(26.681 17.695)"/><path class="a" d="M66.232,53.589c0-3.382-4.96-2.818-4.96-5.1a1.606,1.606,0,0,1,1.648-1.564h.155c1.169,0,1.409.761,2.071.761a.69.69,0,0,0,.747-.634h0c0-.761-1.31-1.212-2.705-1.212-1.832,0-3.438.986-3.438,2.818s1.226,2.48,2.705,3.1c1.169.493,2.254.93,2.254,2.043a1.888,1.888,0,0,1-1.973,1.775h-.1c-1.409,0-1.818-1.043-2.508-1.043-.338,0-.761.141-.761.662,0,.831,1.606,1.536,3.241,1.536a3.311,3.311,0,0,0,3.621-3.142Z" transform="translate(24.28 18.754)"/><path class="a" d="M8.1,56.031V49.085c0-1.2,0-3.325-4.058-3.325A10.3,10.3,0,0,0,.9,46.239c-.69.225-.9.479-.9.831v8.975c0,.338.1.38.38.38H1.409c.282,0,.423,0,.423-.395V47.775c0-.465.761-.93,2.17-.93,2.353,0,2.353,1.522,2.353,2.452v6.735c0,.352.127.395.451.395H7.9C8.087,56.384,8.1,56.215,8.1,56.031Z" transform="translate(0 18.721)"/><path class="a" d="M15.971,51.256a5.4,5.4,0,0,0-1.944-4.748,4.931,4.931,0,0,0-5.227,0,5.382,5.382,0,0,0-1.93,4.748A5.368,5.368,0,0,0,8.8,55.962a4.607,4.607,0,0,0,2.607.747,4.65,4.65,0,0,0,2.621-.747,5.382,5.382,0,0,0,1.944-4.706Zm-1.86,0a5.185,5.185,0,0,1-.944,3.649,2.268,2.268,0,0,1-1.761.662,2.254,2.254,0,0,1-1.747-.662,5.185,5.185,0,0,1-.944-3.649,5.213,5.213,0,0,1,.944-3.663,2.254,2.254,0,0,1,1.747-.662,2.268,2.268,0,0,1,1.761.662A5.213,5.213,0,0,1,14.112,51.256Z" transform="translate(2.796 18.72)"/><path class="a" d="M29,51.256a5.41,5.41,0,0,0-1.916-4.748,4.931,4.931,0,0,0-5.227,0,5.382,5.382,0,0,0-1.93,4.748,5.368,5.368,0,0,0,1.916,4.706,4.945,4.945,0,0,0,5.241,0A5.368,5.368,0,0,0,29,51.256Zm-1.846,0a5.185,5.185,0,0,1-.944,3.649,2.649,2.649,0,0,1-3.508,0,5.185,5.185,0,0,1-.944-3.649,5.213,5.213,0,0,1,.944-3.663,2.649,2.649,0,0,1,3.508,0A5.213,5.213,0,0,1,27.157,51.256Z" transform="translate(8.137 18.72)"/><path class="a" d="M22.345,46.141c0-.211-.169-.211-.268-.211h-1c-.141,0-.183.085-.24.282l-2.621,7.679L15.5,46.254c-.1-.282-.141-.324-.437-.324H13.835c-.085,0-.282,0-.282.24a1.043,1.043,0,0,0,0,.3L17.2,56.046c.1.225.141.3.3.31h.916c.24,0,.282,0,.38-.3l3.522-9.6A1.268,1.268,0,0,0,22.345,46.141Z" transform="translate(5.538 18.791)"/><path class="a" d="M73.819,39.439h.958c.507,0,1.324,0,1.324.775S75.242,41,74.833,41H73.819Zm-.845,4.495h.845v-2.2h.493c.676,0,.93.254,1.55,1.409l.465.817h1.029l-.634-1.085c-.648-1.029-.916-1.184-1.212-1.3h0a1.409,1.409,0,0,0,.916-2.452,2.733,2.733,0,0,0-1.719-.366H72.973ZM75.1,36.41a4.847,4.847,0,1,0,4.833,4.861h0A4.847,4.847,0,0,0,75.1,36.41Zm0,.817a4.044,4.044,0,1,1-4.03,4.058h0a4.044,4.044,0,0,1,4.016-4.044Z" transform="translate(28.726 14.897)"/><path class="a" d="M25.884,0A8.144,8.144,0,0,0,17.74,8.146h0a8.13,8.13,0,0,0,8.13,8.13h0A8.144,8.144,0,1,0,25.884,0Zm.31,12.681A5.481,5.481,0,0,1,20.713,7.2h0a5.481,5.481,0,1,1,5.481,5.481Z" transform="translate(7.255 0.005)"/><path class="a" d="M66.928,24.962c-1.973-3.551-5.96-3.2-7.792-3.043-2.438.2-6.678.831-11.427.831A51.568,51.568,0,0,1,33.324,20.1a35.013,35.013,0,0,1-4.579-1.7c-.916-.451-.437-.648,0-.859a11.525,11.525,0,0,0,4.974-3.959c.831-1.409.521-1.789-.409-1.043-.2.155-.549.451-1.043.775a9.651,9.651,0,0,1-8.454,1.2,9.708,9.708,0,0,1-6.369-6.383c-.352-1.043-.845-1.043-.845.366a9.863,9.863,0,0,0,2.113,6.383c.479.606.775,1.226.479,1.578a11.131,11.131,0,0,0-1.7,2.409,4.974,4.974,0,0,0-.07.789c-.113.775-.916,1.578-1.9,2.818a1.409,1.409,0,0,0,.254,1.973,18.767,18.767,0,0,0,1.409,1.578c.845.479,1.494.141,2.254.38a4.058,4.058,0,0,1,2.691,1.973A44.594,44.594,0,0,0,26.7,36.22a6.862,6.862,0,0,1,.986,4c0,6.1-3.184,11.807-5.241,15.5-.493.888-.395,1.606.268,1.606h3.241c1.409,0,.859-.888,1.071-1.254s.958.085,1.057-1.155a5.989,5.989,0,0,1,.141-1.212c.69-4.988,3.142-12.469,4.65-13.442a12.258,12.258,0,0,1,5.678,8.848,13.273,13.273,0,0,1-.155,6.735c-.423,1.339-.085,1.606.564,1.606h3.367c1.409,0,.761-.93,1-1.226s.775-.1.676-.888c-.859-4.368-3.072-8.073-4.058-12.4a4.4,4.4,0,0,1,2.691-5.453,10.807,10.807,0,0,1,6.284.719c.395.169.437.268.747,0,2.818-2.3,4.156-1.169,4.227-1.1a5.889,5.889,0,0,1,.55,2.24c.38,7.608-7.3,14.935-8.707,16.6-.606.676-.268,1.409.338,1.409h3.551c1.31,0,.747-.944.944-1.2s.62,0,.831-.62c1.029-2.818,3.156-8.031,7.58-11.61.38-.282.747-1.057,1.071-2.818.127-.662.282-1.155.451-1.747,2.508,3.227,2.818,9.017-1.409,16.612-.437.8,0,1.409.338,1.409h3.382c1.029,0,.859-.535.859-1,0-.211,0-.592.789-.592H65.6a14.089,14.089,0,0,0,2.2,0c.606-.113.606-.676.606-1.409V39.362C68.238,37.234,68.591,27.977,66.928,24.962ZM57.6,23.469a1.648,1.648,0,0,1,1.62.465,5.129,5.129,0,0,1,.888,3.607c-.127.69-1.113.972-1.226.24a8.2,8.2,0,0,0-1.606-3.48C56.769,23.751,56.938,23.6,57.6,23.469Zm-13.512.38c1.648.085,2.452.169,3.466.155s2.635,0,3.17-.1a1.648,1.648,0,0,1,1.916.972c.31.747,1.409,3.79-.409,4.635a12.173,12.173,0,0,1-7.383.733c-.62-.169-1.634-.409-1.606-1.663a29.236,29.236,0,0,0-.155-3.508C42.99,24.328,42.863,23.751,44.089,23.849Zm-6.34-.761c1.014.155,1.014.437,1.014,1.043.085,2.494-.564,4.114-1.409,4.579-.479.268-1.085.141-1.085-.352a17.457,17.457,0,0,0,.437-4.607C36.635,22.891,36.734,22.933,37.748,23.088Zm-13.442,6.3a10.919,10.919,0,0,0-2.564-3.367c-1.9-1.409-3.579-.451-4.368-1.409s-1.339-1.254-.592-2.17c.549-.662.859-1.212,1.2-1.592s.282-1.409.423-1.789a7.313,7.313,0,0,1,1.944-2.353c.986-.8,2.311,0,4.931,1.522,1.409.845,2.9,1.592,3.607,2.015s.2,1.254-.211,1.9a51.3,51.3,0,0,0-3.367,6.622C24.969,29.654,24.772,30.049,24.307,29.386Zm39.451,2.367a28.091,28.091,0,0,1-.578,3.4c-.733,3.367-2.48,2.015-3.029,1.663a13.54,13.54,0,0,0-6.326-2.128c-5.636-.479-8.764-.085-10.44.479-.493.155-4.72,1.409-4.8,5.636,0,1.282-.38,1.155-.972.7a69.168,69.168,0,0,0-7.115-4.8,8.989,8.989,0,0,1-2.9-2.677,6.411,6.411,0,0,1-.648-6.044,27.475,27.475,0,0,1,2.452-4.9c1.409-2.015,1.226-2.043,3.861-1.2,2.367.761,2.24,1.057,2.268,2.212a17.063,17.063,0,0,1-.465,4.311,1.282,1.282,0,0,0,.986,1.55,1.071,1.071,0,0,0,.3,0c3.706.1,3.79-5.058,3.79-5.072,0-1.2-.38-1.409.8-1.324.888.1,1.057.845,1.184,2.2v2.973A2.283,2.283,0,0,0,44,31.134a13.85,13.85,0,0,0,8.947-.761,2.564,2.564,0,0,0,1.409-2.733,13.033,13.033,0,0,0-.592-2.931c-.225-.564-.2-.958.282-1.014,2.268-.3,3.283,2.057,4.058,4.931.254.93,1.536.874,2.2.24a3.311,3.311,0,0,0,.549-3.466,5.636,5.636,0,0,0-.535-1.409c-.169-.282-.211-.521.409-.521,4.128,0,3.1,7.623,3.043,8.285Zm2.621,9.257a.31.31,0,0,1-.141.3.324.324,0,0,1-.451-.085,41.521,41.521,0,0,1-1.155-5.41,14.272,14.272,0,0,1,.31-3.945,38.564,38.564,0,0,0,.183-4.227c0-.62.493-.564.733.338.93,2.55.535,12.822.535,13.033Z" transform="translate(6.226 3.027)"/><path class="a" d="M18.6,16.668c.775,1.339,2.353-.874,2.212-1.282S17.811,15.344,18.6,16.668Z" transform="translate(7.551 6.234)"/></g></g></svg>